<svg width="26" height="23" viewBox="0 0 26 23" fill="none" xmlns="http://www.w3.org/2000/svg">
<path d="M16.5195 4.91089C16.373 5.05735 16.1743 5.13963 15.9671 5.13963C15.76 5.13963 15.5613 5.05735 15.4148 4.91089C15.2006 4.69593 14.946 4.52553 14.6656 4.40954C14.3852 4.29355 14.0846 4.23426 13.7812 4.23511C13.1406 4.23511 12.5679 4.49214 12.1476 4.91089C12.0751 4.98342 11.989 5.04096 11.8942 5.08022C11.7994 5.11947 11.6979 5.13968 11.5953 5.13968C11.3881 5.13968 11.1894 5.05738 11.0429 4.91089C10.9704 4.83835 10.9129 4.75224 10.8736 4.65747C10.8343 4.5627 10.8141 4.46113 10.8141 4.35855C10.8141 4.15138 10.8964 3.95269 11.0429 3.8062C11.4024 3.44649 11.8293 3.1612 12.2992 2.96668C12.769 2.77217 13.2727 2.67223 13.7812 2.67261C14.2898 2.67223 14.7934 2.77217 15.2633 2.96668C15.7331 3.1612 16.16 3.44649 16.5195 3.8062C16.666 3.95271 16.7482 4.15139 16.7482 4.35855C16.7482 4.56571 16.666 4.76438 16.5195 4.91089ZM7.4484 4.1648C6.75825 4.56795 6.13406 5.07463 5.59762 5.66714L5.59684 5.66792C5.05856 6.26262 4.61508 6.93666 4.28199 7.66636C3.94004 8.41516 3.71982 9.21375 3.62965 10.032C3.61836 10.134 3.62727 10.2372 3.65587 10.3357C3.68447 10.4342 3.7322 10.5262 3.79633 10.6063C3.86046 10.6864 3.93974 10.753 4.02964 10.8025C4.11954 10.8519 4.21829 10.8832 4.32027 10.8945C4.42225 10.9058 4.52546 10.8969 4.62399 10.8683C4.72253 10.8397 4.81447 10.7919 4.89456 10.7278C4.97465 10.6637 5.04132 10.5844 5.09078 10.4945C5.14023 10.4046 5.17149 10.3058 5.18277 10.2039C5.25606 9.55069 5.43192 8.91317 5.70387 8.3148C6.23916 7.14238 7.12382 6.16413 8.23668 5.51401C8.32527 5.46226 8.4028 5.39355 8.46484 5.31183C8.52688 5.23011 8.57222 5.13697 8.59826 5.03773C8.6243 4.93848 8.63055 4.83508 8.61663 4.73343C8.60271 4.63177 8.56891 4.53386 8.51715 4.44526C8.46539 4.35667 8.39669 4.27914 8.31497 4.2171C8.23324 4.15506 8.1401 4.10973 8.04086 4.08369C7.84043 4.03109 7.62732 4.06026 7.4484 4.1648ZM19.25 12.8906C19.25 12.6834 19.3323 12.4847 19.4788 12.3381C19.6253 12.1916 19.824 12.1093 20.0312 12.1093C20.2384 12.1093 20.4371 12.1916 20.5836 12.3381C20.7302 12.4847 20.8125 12.6834 20.8125 12.8906C20.8114 13.5954 20.5377 14.2725 20.0487 14.7801C19.5597 15.2878 18.8933 15.5866 18.189 15.614C18.3632 15.9726 18.4687 16.371 18.4687 16.7968C18.4687 17.004 18.3864 17.2027 18.2399 17.3493C18.0934 17.4958 17.8947 17.5781 17.6875 17.5781C17.4803 17.5781 17.2815 17.4958 17.135 17.3493C16.9885 17.2027 16.9062 17.004 16.9062 16.7968C16.9062 16.486 16.7827 16.188 16.563 15.9682C16.3432 15.7484 16.0451 15.625 15.7343 15.625H10.9046C10.6974 15.625 10.4987 15.5426 10.3522 15.3961C10.2057 15.2496 10.1234 15.0509 10.1234 14.8437C10.1234 14.6365 10.2057 14.4378 10.3522 14.2913C10.4987 14.1448 10.6974 14.0625 10.9046 14.0625H12.6093C12.9199 14.0618 13.2177 13.9382 13.4373 13.7185C13.6569 13.4989 13.7806 13.2012 13.7812 12.8906C13.7812 12.6834 13.8635 12.4847 14.01 12.3381C14.1565 12.1916 14.3553 12.1093 14.5625 12.1093C14.7697 12.1093 14.9684 12.1916 15.1149 12.3381C15.2614 12.4847 15.3437 12.6834 15.3437 12.8906C15.3437 13.3117 15.2406 13.7062 15.0703 14.0625H18.0781C18.3887 14.0618 18.6864 13.9382 18.906 13.7185C19.1257 13.4989 19.2493 13.2012 19.25 12.8906Z" fill="black"/>
<path d="M25.5 12.2742C25.5 11.7836 25.4648 11.3086 25.4109 10.8477C24.7023 4.73984 19.5219 0.0015625 13.2258 0H12.2633C5.76562 0.00078125 0.500781 5.26562 0.5 11.7633C0.5 12.373 0.620094 12.9768 0.853425 13.5401C1.08676 14.1034 1.42875 14.6152 1.85989 15.0464C2.73062 15.9171 3.91158 16.4062 5.14297 16.4062H6.1125C6.37525 17.5177 7.00534 18.508 7.90082 19.2169C8.7963 19.9258 9.90477 20.3118 11.0469 20.3125H16.5969L19.0312 22.7469C19.1132 22.8287 19.2176 22.8844 19.3311 22.907C19.4447 22.9296 19.5625 22.918 19.6695 22.8737C19.7765 22.8294 19.8679 22.7543 19.9323 22.6581C19.9967 22.5618 20.0311 22.4486 20.0312 22.3328V20.2477C21.2321 20.0979 22.3635 19.6024 23.2878 18.8214C24.2121 18.0403 24.8895 17.0074 25.2375 15.8484C25.3492 15.475 25.4133 15.0812 25.4539 14.6805L25.4562 14.6742C25.4781 14.6023 25.5 14.5312 25.5 14.4531C25.4995 14.4052 25.4974 14.3578 25.4937 14.3109L25.4883 14.2211C25.4888 14.1961 25.4906 14.1719 25.4937 14.1484C25.4979 14.1198 25.5 14.0911 25.5 14.0625V12.2742ZM23.7406 15.4023C23.4522 16.3694 22.8594 17.2175 22.0503 17.8206C21.2412 18.4238 20.2591 18.7497 19.25 18.75H11.0469C10.1702 18.7496 9.32538 18.4216 8.67803 17.8305C8.03068 17.2393 7.62753 16.4277 7.54766 15.5547L7.54297 15.5047C7.56909 14.49 7.99117 13.5258 8.71897 12.8183C9.44676 12.1108 10.4225 11.7162 11.4375 11.7187C11.6447 11.7187 11.8434 11.6364 11.9899 11.4899C12.1364 11.3434 12.2188 11.1447 12.2188 10.9375C12.2188 10.7303 12.1364 10.5316 11.9899 10.3851C11.8434 10.2386 11.6447 10.1562 11.4375 10.1562C10.5201 10.1562 9.61736 10.387 8.8125 10.8273C8.65889 10.4822 8.44395 10.1677 8.17812 9.89922C8.03163 9.75273 7.83295 9.67043 7.62578 9.67043C7.41861 9.67043 7.21993 9.75273 7.07344 9.89922C6.92695 10.0457 6.84465 10.2444 6.84465 10.4516C6.84465 10.6587 6.92695 10.8574 7.07344 11.0039C7.29531 11.2266 7.44609 11.5117 7.50312 11.8312C6.70919 12.6565 6.19436 13.7102 6.03125 14.8437H5.14297C4.73823 14.8444 4.33736 14.765 3.96342 14.6101C3.58948 14.4553 3.24985 14.228 2.96406 13.9414C2.6777 13.6556 2.45063 13.3161 2.29591 12.9423C2.14119 12.5685 2.06187 12.1678 2.0625 11.7633C2.0625 8.94375 3.20312 6.39844 5.05 4.55C5.99581 3.60081 7.12011 2.84816 8.3581 2.33542C9.59609 1.82269 10.9233 1.56 12.2633 1.5625H13.2258C18.4523 1.56094 22.793 5.3125 23.7344 10.2648C22.8729 9.42468 21.7736 8.87013 20.5859 8.67656C20.9789 7.95625 21.2031 7.12891 21.2031 6.25C21.2031 6.0428 21.1208 5.84409 20.9743 5.69757C20.8278 5.55106 20.6291 5.46875 20.4219 5.46875C20.2147 5.46875 20.016 5.55106 19.8694 5.69757C19.7229 5.84409 19.6406 6.0428 19.6406 6.25C19.6415 6.71181 19.5509 7.16922 19.3742 7.59587C19.1975 8.02253 18.9381 8.40999 18.6109 8.73594C18.285 9.06309 17.8975 9.3225 17.4709 9.49922C17.0442 9.67594 16.5868 9.76648 16.125 9.76562C15.9178 9.76562 15.7191 9.84793 15.5726 9.99445C15.4261 10.141 15.3438 10.3397 15.3438 10.5469C15.3438 10.7541 15.4261 10.9528 15.5726 11.0993C15.7191 11.2458 15.9178 11.3281 16.125 11.3281C17.3328 11.3289 18.501 10.8971 19.418 10.1109L19.4305 10.1148C19.4983 10.1382 19.569 10.1522 19.6406 10.1562C20.8297 10.1562 21.8992 10.6359 22.6789 11.4148C23.4272 12.1639 23.8715 13.1637 23.9258 14.2211C23.9147 14.6211 23.8525 15.0181 23.7406 15.4023Z" fill="black"/>
</svg>
