<svg width="13" height="19" viewBox="0 0 13 19" fill="none" xmlns="http://www.w3.org/2000/svg">
<path fill-rule="evenodd" clip-rule="evenodd" d="M3.12134 7.40467C2.77736 7.40467 2.43676 7.46968 2.11897 7.59597C1.80118 7.72226 1.51243 7.90737 1.26921 8.14073C1.02598 8.37409 0.833045 8.65113 0.701412 8.95602C0.56978 9.26092 0.502029 9.58771 0.502029 9.91773C0.502029 10.2477 0.56978 10.5745 0.701412 10.8794C0.833045 11.1843 1.02598 11.4614 1.26921 11.6947C1.51243 11.9281 1.80118 12.1132 2.11897 12.2395C2.43676 12.3658 2.77736 12.4308 3.12134 12.4308H5.74064V7.40467H3.12134ZM5.74064 5.94529H3.12134C2.42652 5.94529 1.76016 5.68047 1.26885 5.20909C0.777538 4.73771 0.501522 4.09838 0.501522 3.43175C0.501522 2.76512 0.777538 2.12579 1.26885 1.65441C1.76016 1.18303 2.42652 0.918213 3.12134 0.918213H5.74064V5.94529ZM7.26173 0.918213V5.94529H9.88104C10.5669 5.93234 11.2202 5.66184 11.7005 5.19187C12.1808 4.7219 12.4498 4.08995 12.4498 3.43175C12.4498 2.77356 12.1808 2.14161 11.7005 1.67164C11.2202 1.20167 10.5669 0.93116 9.88104 0.918213H7.26173ZM9.88104 7.4037C9.1935 7.40362 8.53349 7.6629 8.04345 8.1256C7.55342 8.58829 7.27264 9.2173 7.26173 9.87686V9.95762C7.27012 10.4528 7.43085 10.9346 7.72372 11.3425C8.01659 11.7503 8.42854 12.0661 8.90783 12.25C9.38713 12.434 9.91239 12.478 10.4176 12.3764C10.9229 12.2749 11.3856 12.0324 11.7477 11.6794C12.1098 11.3263 12.355 10.8785 12.4527 10.3922C12.5504 9.90586 12.4961 9.40267 12.2966 8.94585C12.0972 8.48902 11.7615 8.09893 11.3317 7.82455C10.902 7.55018 10.3973 7.40377 9.88104 7.4037ZM3.12134 13.8902C2.60304 13.89 2.09633 14.0372 1.66529 14.3134C1.23424 14.5895 0.898234 14.9821 0.699753 15.4414C0.501271 15.9008 0.449235 16.4063 0.550226 16.8941C0.651217 17.3818 0.900699 17.8298 1.26712 18.1815C1.63354 18.5332 2.10043 18.7728 2.60875 18.8698C3.11707 18.9669 3.64398 18.9172 4.12284 18.7269C4.6017 18.5367 5.011 18.2145 5.29897 17.801C5.58694 17.3876 5.74064 16.9015 5.74064 16.4042V13.8902H3.12134Z" fill="black"/>
</svg>
