<svg width="16" height="15" viewBox="0 0 16 15" fill="none" xmlns="http://www.w3.org/2000/svg">
<path d="M6 8.5L7.894 6.606C7.92213 6.57791 7.96025 6.56213 8 6.56213C8.03975 6.56213 8.07787 6.57791 8.106 6.606L10 8.5M8 11V6.5" stroke="black"/>
<path d="M0.5 2.9C0.5 2.06 0.5 1.64 0.663 1.319C0.806853 1.03651 1.03651 0.806853 1.319 0.663C1.639 0.5 2.059 0.5 2.9 0.5H5.472C5.848 0.5 6.036 0.5 6.207 0.552C6.35785 0.597822 6.49819 0.672919 6.62 0.773C6.757 0.886 6.862 1.043 7.07 1.355L7.93 2.645C8.138 2.958 8.243 3.115 8.38 3.227C8.502 3.327 8.643 3.403 8.793 3.449C8.964 3.5 9.152 3.5 9.528 3.5H13.1C13.94 3.5 14.36 3.5 14.681 3.664C14.9633 3.80759 15.193 4.03688 15.337 4.319C15.5 4.64 15.5 5.06 15.5 5.9V12.1C15.5 12.94 15.5 13.36 15.337 13.681C15.1931 13.9635 14.9635 14.1931 14.681 14.337C14.361 14.5 13.941 14.5 13.1 14.5H2.9C2.06 14.5 1.64 14.5 1.319 14.337C1.03651 14.1931 0.806853 13.9635 0.663 13.681C0.5 13.361 0.5 12.941 0.5 12.101V2.9Z" stroke="black"/>
</svg>
