<svg width="19" height="19" viewBox="0 0 19 19" fill="none" xmlns="http://www.w3.org/2000/svg">
<path d="M1.03365 8.64826L6.23955 3.43335L7.7617 4.9645C7.54553 5.73007 7.8968 6.5677 8.59932 6.973V11.9627C8.05892 12.269 7.69865 12.8544 7.69865 13.5209C7.69865 13.9987 7.88843 14.4568 8.22625 14.7947C8.56407 15.1325 9.02225 15.3223 9.5 15.3223C9.97775 15.3223 10.4359 15.1325 10.7737 14.7947C11.1116 14.4568 11.3014 13.9987 11.3014 13.5209C11.3014 12.8544 10.9411 12.269 10.4007 11.9627V7.58546L12.2651 9.46788C12.202 9.60298 12.202 9.75609 12.202 9.91821C12.202 10.396 12.3918 10.8541 12.7296 11.192C13.0674 11.5298 13.5256 11.7196 14.0034 11.7196C14.4811 11.7196 14.9393 11.5298 15.2771 11.192C15.6149 10.8541 15.8047 10.396 15.8047 9.91821C15.8047 9.44046 15.6149 8.98228 15.2771 8.64447C14.9393 8.30665 14.4811 8.11686 14.0034 8.11686C13.8413 8.11686 13.6881 8.11686 13.553 8.17991L11.2383 5.86517C11.3501 5.44801 11.3068 5.00444 11.1163 4.61683C10.9258 4.22922 10.6011 3.92391 10.2025 3.75759C9.81524 3.61348 9.40993 3.57746 9.04966 3.67653L7.51851 2.15439L8.23005 1.45186C8.93257 0.740329 10.0674 0.740329 10.77 1.45186L17.9663 8.64826C18.6779 9.35079 18.6779 10.4856 17.9663 11.1882L10.77 18.3846C10.0674 19.0961 8.93257 19.0961 8.23005 18.3846L1.03365 11.1882C0.322117 10.4856 0.322117 9.35079 1.03365 8.64826Z" fill="black"/>
</svg>
