<svg width="15" height="15" viewBox="0 0 15 15" fill="none" xmlns="http://www.w3.org/2000/svg">
<path d="M7.55486 5.35523C7.70305 5.35483 7.84506 5.29578 7.94985 5.19099C8.05464 5.0862 8.11369 4.9442 8.11408 4.796V4.23476C8.11408 3.92863 7.86302 3.67554 7.55486 3.67554C7.24671 3.67554 6.99463 3.92913 6.99463 4.23476V4.796C6.99463 5.10365 7.24671 5.35523 7.55486 5.35523ZM6.43591 7.59363H6.99463V10.7651C6.99463 11.0727 7.24671 11.3243 7.55486 11.3243C7.86302 11.3243 8.11408 11.0727 8.11408 10.7651V7.0339C8.11369 6.88571 8.05464 6.7437 7.94985 6.63892C7.84506 6.53413 7.70305 6.47508 7.55486 6.47468H6.43591C6.12776 6.47468 5.87568 6.72626 5.87568 7.0339C5.87568 7.34155 6.12776 7.59363 6.43591 7.59363Z" fill="black"/>
<path d="M14.4953 15.0005H0.50517C0.37119 15.0005 0.242699 14.9473 0.147961 14.8525C0.0532232 14.7578 0 14.6293 0 14.4953V0.50517C0 0.37119 0.0532232 0.242699 0.147961 0.147961C0.242699 0.0532232 0.37119 0 0.50517 0H14.4948C14.6288 0 14.7573 0.0532232 14.852 0.147961C14.9468 0.242699 15 0.37119 15 0.50517V14.4948C15.0001 14.5612 14.9871 14.6269 14.9617 14.6882C14.9364 14.7495 14.8993 14.8052 14.8524 14.8522C14.8055 14.8991 14.7499 14.9364 14.6886 14.9619C14.6274 14.9873 14.5617 15.0004 14.4953 15.0005ZM1.01034 13.9902H13.9897V1.01034H1.01034V13.9902Z" fill="black"/>
</svg>
