<svg width="18" height="19" viewBox="0 0 18 19" fill="none" xmlns="http://www.w3.org/2000/svg">
<path fill-rule="evenodd" clip-rule="evenodd" d="M0 0.918213H18V18.9182H0V0.918213ZM13.7603 16.0082C12.9255 16.0082 12.4537 15.5732 12.0915 14.9807L10.7167 15.7795C11.2132 16.7605 12.228 17.509 13.7992 17.509C15.4058 17.509 16.602 16.675 16.602 15.1517C16.602 13.7395 15.7905 13.1117 14.3535 12.4945L13.9305 12.3137C13.2045 11.9987 12.8903 11.794 12.8903 11.2862C12.8903 10.876 13.2052 10.5617 13.7003 10.5617C14.1855 10.5617 14.4983 10.7665 14.7885 11.2862L16.1055 10.441C15.5483 9.46071 14.7758 9.08646 13.7003 9.08646C12.1898 9.08646 11.223 10.0525 11.223 11.3215C11.223 12.6977 12.033 13.3495 13.254 13.8692L13.677 14.0507C14.4488 14.3882 14.9085 14.5937 14.9085 15.1735C14.9085 15.658 14.4608 16.0082 13.7603 16.0082ZM7.20525 15.997C6.624 15.997 6.38175 15.5995 6.11625 15.127L4.73925 15.961C5.13825 16.8055 5.92275 17.506 7.2765 17.506C8.77575 17.506 9.8025 16.7087 9.8025 14.9575V9.18246H8.11125V14.935C8.11125 15.7802 7.76025 15.997 7.2045 15.997" fill="black"/>
</svg>
