<svg width="18" height="17" viewBox="0 0 18 17" fill="none" xmlns="http://www.w3.org/2000/svg">
<path d="M15.6111 0C16.1121 0 16.5925 0.199007 16.9468 0.553243C17.301 0.907478 17.5 1.38792 17.5 1.88889V15.1111C17.5 15.6121 17.301 16.0925 16.9468 16.4468C16.5925 16.801 16.1121 17 15.6111 17H2.38889C1.88792 17 1.40748 16.801 1.05324 16.4468C0.699007 16.0925 0.5 15.6121 0.5 15.1111V1.88889C0.5 1.38792 0.699007 0.907478 1.05324 0.553243C1.40748 0.199007 1.88792 0 2.38889 0H15.6111ZM15.1389 14.6389V9.63333C15.1389 8.81676 14.8145 8.03363 14.2371 7.45623C13.6597 6.87883 12.8766 6.55444 12.06 6.55444C11.2572 6.55444 10.3222 7.04556 9.86889 7.78222V6.73389H7.23389V14.6389H9.86889V9.98278C9.86889 9.25556 10.4544 8.66056 11.1817 8.66056C11.5323 8.66056 11.8687 8.79986 12.1166 9.04782C12.3646 9.29579 12.5039 9.6321 12.5039 9.98278V14.6389H15.1389ZM4.16444 5.25111C4.58525 5.25111 4.98883 5.08395 5.28639 4.78639C5.58395 4.48883 5.75111 4.08525 5.75111 3.66444C5.75111 2.78611 5.04278 2.06833 4.16444 2.06833C3.74113 2.06833 3.33515 2.23649 3.03582 2.53582C2.73649 2.83515 2.56833 3.24113 2.56833 3.66444C2.56833 4.54278 3.28611 5.25111 4.16444 5.25111ZM5.47722 14.6389V6.73389H2.86111V14.6389H5.47722Z" fill="black"/>
</svg>
