<svg width="16" height="20" viewBox="0 0 16 20" fill="none" xmlns="http://www.w3.org/2000/svg">
<path fill-rule="evenodd" clip-rule="evenodd" d="M4.16225 13.3184C4.321 13.3275 4.47478 13.377 4.60902 13.4623C4.74325 13.5475 4.85347 13.6656 4.92921 13.8054L6.69453 17.0646C6.84357 17.3402 6.91296 17.6518 6.89491 17.9647C6.87686 18.2775 6.7721 18.5791 6.59235 18.8357C6.4126 19.0924 6.16496 19.2939 5.87716 19.4178C5.58936 19.5417 5.27276 19.583 4.9628 19.5371L1.29593 18.9941C1.13861 18.9707 0.989871 18.9075 0.863846 18.8105C0.73782 18.7135 0.63869 18.5858 0.575868 18.4397C0.513046 18.2936 0.488618 18.1339 0.504905 17.9757C0.521192 17.8174 0.577652 17.666 0.668923 17.5358L1.25021 16.7053L1.08786 15.7872C1.06651 15.6665 1.06915 15.5428 1.09562 15.4231C1.1221 15.3035 1.1719 15.1902 1.24217 15.0898C1.31244 14.9893 1.40181 14.9037 1.50517 14.8379C1.60853 14.772 1.72386 14.7271 1.84456 14.7058L2.76361 14.5444L3.3449 13.714C3.43606 13.5837 3.559 13.4789 3.70205 13.4095C3.8451 13.3401 4.00351 13.3084 4.16225 13.3175V13.3184ZM10.0843 13.296C10.2064 13.2302 10.3416 13.1925 10.48 13.1856C10.6185 13.1787 10.7568 13.2027 10.8848 13.2559L10.9931 13.3091L11.8701 13.8157L12.7715 13.574C12.9923 13.5149 13.2271 13.5388 13.4314 13.6413C13.6358 13.7438 13.7954 13.9178 13.8799 14.1301L13.9144 14.2337L14.1561 15.135L15.0332 15.6417C15.1621 15.7161 15.2714 15.8203 15.3519 15.9455C15.4324 16.0708 15.4818 16.2135 15.4958 16.3618C15.5099 16.51 15.4883 16.6594 15.4328 16.7976C15.3773 16.9358 15.2895 17.0587 15.1769 17.156L15.0808 17.2288L11.9877 19.2703C11.7366 19.4361 11.4457 19.5317 11.1451 19.5473C10.8446 19.5629 10.5454 19.4978 10.2785 19.3589C10.0115 19.22 9.78659 19.0122 9.62695 18.7571C9.46731 18.502 9.37877 18.2089 9.37051 17.908L9.37331 17.7606L9.59537 14.0611C9.60498 13.9025 9.65493 13.749 9.74049 13.6151C9.82605 13.4812 9.94439 13.3713 10.0843 13.296ZM7.64811 0.918213C8.63794 0.918213 9.58724 1.31142 10.2872 2.01134C10.9871 2.71126 11.3803 3.66056 11.3803 4.6504V5.58344C11.3803 6.71616 11.8487 7.69866 12.4682 8.71288L13.1549 9.79988C13.2483 9.94916 13.3369 10.0938 13.4162 10.2263C13.7148 10.7311 14.0021 11.29 14.1514 11.888C14.2531 12.3034 14.3137 12.7278 14.3324 13.1551C14.1007 12.9237 13.812 12.7574 13.4956 12.6729C13.1792 12.5884 12.8461 12.5887 12.5298 12.6737L12.0026 12.8145L11.4596 12.501C11.1841 12.3421 10.8725 12.2562 10.5545 12.2515C10.2364 12.2468 9.92243 12.3235 9.64235 12.4743C9.36227 12.6251 9.12539 12.8449 8.95419 13.113C8.78299 13.3811 8.68317 13.6885 8.66419 14.006L8.44213 17.7056C8.42254 18.0275 8.46266 18.3438 8.55503 18.6414L8.30404 18.6461H7.92522C7.85431 18.6461 7.78402 18.6448 7.71435 18.6424C7.91962 17.9799 7.85618 17.2502 7.51468 16.6204L5.75029 13.3613C5.59884 13.0816 5.37841 12.8452 5.10992 12.6747C4.84143 12.5041 4.5338 12.405 4.21623 12.3868C3.89867 12.3685 3.58172 12.4318 3.29547 12.5705C3.00923 12.7092 2.7632 12.9188 2.58073 13.1794L2.22151 13.6925L1.91361 13.7467C1.88218 13.3861 1.88969 13.0233 1.936 12.6643C1.97052 12.3984 2.01624 12.1353 2.07782 11.888C2.26257 11.1491 2.577 10.5267 2.87744 10.0033L3.28518 9.31283C3.67333 8.64383 3.91592 8.12319 3.91592 7.44953V4.6504C3.91592 3.66056 4.30913 2.71126 5.00905 2.01134C5.70897 1.31142 6.65827 0.918213 7.64811 0.918213ZM6.30639 6.30935L5.53942 6.6919C5.74843 7.24893 6.07313 7.7705 6.37637 8.18477L6.56671 8.43576L6.73839 8.6457L6.81396 8.73341L7.04723 8.60184L7.3542 8.41804C7.51841 8.31633 7.69756 8.20157 7.8823 8.07561C8.44586 7.69119 9.02528 7.22654 9.43302 6.74415L7.27209 6.20298C6.94781 6.12199 6.60526 6.15972 6.30639 6.30935Z" fill="black"/>
</svg>
