<svg width="18" height="17" viewBox="0 0 18 17" fill="none" xmlns="http://www.w3.org/2000/svg">
<path d="M9 7.346C9.86233 7.346 10.5656 8.04476 10.5656 8.91821C10.5656 9.75007 9.86233 10.4571 9 10.4571C8.13767 10.4571 7.43442 9.75007 7.43442 8.91821C7.43442 8.04476 8.13767 7.346 9 7.346ZM5.12372 15.5731C5.65116 15.8892 6.80651 15.4067 8.13767 14.1589C7.70233 13.6681 7.27535 13.1357 6.87349 12.5784C6.19888 12.5138 5.52818 12.4138 4.86419 12.2789C4.43721 14.0591 4.59628 15.2819 5.12372 15.5731ZM5.71814 10.7982L5.47535 10.374C5.38326 10.6152 5.29116 10.8564 5.23256 11.0894C5.4586 11.1393 5.70977 11.1809 5.9693 11.2225L5.71814 10.7982ZM11.1935 10.166L11.8716 8.91821L11.1935 7.67043C10.9423 7.22954 10.6744 6.83857 10.4316 6.4476C9.97954 6.42264 9.50233 6.42264 9 6.42264C8.49767 6.42264 8.02046 6.42264 7.56837 6.4476C7.32558 6.83857 7.05767 7.22954 6.80651 7.67043L6.12837 8.91821L6.80651 10.166C7.05767 10.6069 7.32558 10.9979 7.56837 11.3888C8.02046 11.4138 8.49767 11.4138 9 11.4138C9.50233 11.4138 9.97954 11.4138 10.4316 11.3888C10.6744 10.9979 10.9423 10.6069 11.1935 10.166ZM9 4.57592C8.84093 4.75893 8.67349 4.95025 8.50605 5.17485H9.49395C9.32651 4.95025 9.15907 4.75893 9 4.57592ZM9 13.2605C9.15907 13.0775 9.32651 12.8862 9.49395 12.6616H8.50605C8.67349 12.8862 8.84093 13.0775 9 13.2605ZM12.8679 2.26335C12.3488 1.94725 11.1935 2.42973 9.86232 3.67751C10.2977 4.16831 10.7247 4.7007 11.1265 5.25804C11.813 5.32459 12.4912 5.42441 13.1358 5.55751C13.5628 3.77733 13.4037 2.5545 12.8679 2.26335ZM12.2819 7.03822L12.5247 7.46246C12.6167 7.22122 12.7088 6.97999 12.7674 6.74707C12.5414 6.69715 12.2902 6.65556 12.0307 6.61397L12.2819 7.03822ZM13.4958 1.17362C14.7265 1.87238 14.8605 3.71079 14.3414 5.85698C16.4679 6.48087 18 7.51237 18 8.91821C18 10.3241 16.4679 11.3556 14.3414 11.9794C14.8605 14.1256 14.7265 15.964 13.4958 16.6628C12.2735 17.3616 10.6074 16.563 9 15.0407C7.39256 16.563 5.72651 17.3616 4.49581 16.6628C3.27349 15.964 3.13953 14.1256 3.6586 11.9794C1.53209 11.3556 0 10.3241 0 8.91821C0 7.51237 1.53209 6.48087 3.6586 5.85698C3.13953 3.71079 3.27349 1.87238 4.49581 1.17362C5.72651 0.47486 7.39256 1.27344 9 2.79574C10.6074 1.27344 12.2735 0.47486 13.4958 1.17362ZM13.253 8.91821C13.5377 9.54211 13.7888 10.166 13.9981 10.7982C15.7563 10.2741 16.7442 9.52547 16.7442 8.91821C16.7442 8.31096 15.7563 7.56228 13.9981 7.03822C13.7888 7.67043 13.5377 8.29432 13.253 8.91821ZM4.74698 8.91821C4.46233 8.29432 4.21116 7.67043 4.00186 7.03822C2.24372 7.56228 1.25581 8.31096 1.25581 8.91821C1.25581 9.52547 2.24372 10.2741 4.00186 10.7982C4.21116 10.166 4.46233 9.54211 4.74698 8.91821ZM12.2819 10.7982L12.0307 11.2225C12.2902 11.1809 12.5414 11.1393 12.7674 11.0894C12.7088 10.8564 12.6167 10.6152 12.5247 10.374L12.2819 10.7982ZM9.86232 14.1589C11.1935 15.4067 12.3488 15.8892 12.8679 15.5731C13.4037 15.2819 13.5628 14.0591 13.1358 12.2789C12.4912 12.412 11.813 12.5118 11.1265 12.5784C10.7247 13.1357 10.2977 13.6681 9.86232 14.1589ZM5.71814 7.03822L5.9693 6.61397C5.70977 6.65556 5.4586 6.69715 5.23256 6.74707C5.29116 6.97999 5.38326 7.22122 5.47535 7.46246L5.71814 7.03822ZM8.13767 3.67751C6.80651 2.42973 5.65116 1.94725 5.12372 2.26335C4.59628 2.5545 4.43721 3.77733 4.86419 5.55751C5.52818 5.42262 6.19888 5.32266 6.87349 5.25804C7.27535 4.7007 7.70233 4.16831 8.13767 3.67751Z" fill="black"/>
</svg>
