<svg width="18" height="19" viewBox="0 0 18 19" fill="none" xmlns="http://www.w3.org/2000/svg">
<path d="M17.5718 0.918216H0.427501C0.371297 0.918215 0.315646 0.929298 0.26373 0.950829C0.211814 0.972359 0.164654 1.00392 0.124947 1.04369C0.0852402 1.08347 0.0537664 1.13068 0.0323266 1.18264C0.0108869 1.23459 -9.79431e-05 1.29026 6.59112e-07 1.34647V18.4907C-9.81407e-05 18.547 0.0109114 18.6027 0.032398 18.6547C0.0538846 18.7067 0.0854255 18.754 0.125212 18.7938C0.164998 18.8335 0.212247 18.8651 0.26425 18.8866C0.316252 18.9081 0.371984 18.9191 0.428251 18.919H17.5725C17.6288 18.9191 17.6845 18.9081 17.7365 18.8866C17.7885 18.8651 17.8358 18.8335 17.8755 18.7938C17.9153 18.754 17.9469 18.7067 17.9684 18.6547C17.9898 18.6027 18.0008 18.547 18.0007 18.4907V1.34572C18.0007 1.28945 17.9896 1.23374 17.9681 1.18177C17.9465 1.12981 17.9149 1.08261 17.875 1.0429C17.8352 1.00318 17.7878 0.971721 17.7358 0.950325C17.6838 0.92893 17.628 0.918018 17.5718 0.918216ZM10.7145 10.5377H8.57175V17.2037H6.85725V10.5377H4.7145V9.06097H10.7145V10.5377ZM11.1945 16.8227V15.0415C11.1945 15.0415 12.168 15.775 13.3358 15.775C14.5035 15.775 14.4585 15.0115 14.4585 14.9065C14.4585 13.7987 11.1495 13.7987 11.1495 11.3432C11.1495 8.00421 15.9713 9.32197 15.9713 9.32197L15.9113 10.909C15.9113 10.909 15.1028 10.3697 14.1893 10.3697C13.2758 10.3697 12.9465 10.8047 12.9465 11.2682C12.9465 12.466 16.2855 12.3467 16.2855 14.7572C16.2855 18.4697 11.1945 16.8235 11.1945 16.8235" fill="black"/>
</svg>
